<svg xmlns="http://www.w3.org/2000/svg" width="301" height="24.608" viewBox="0 0 301 24.608">
  <g id="Group_12" data-name="Group 12" transform="translate(0 -1.392)">
    <g id="microsoft_logo_color" data-name="microsoft logo color" transform="translate(0 1.392)">
      <g id="Group_2" data-name="Group 2" transform="translate(0 0)">
        <path id="Path_14" data-name="Path 14" d="M0,0H11.663q0,5.832,0,11.663H0V0Z" fill="#f25022"/>
        <path id="Path_15" data-name="Path 15" d="M85.862,0H97.525q0,5.832,0,11.663H85.863q0-5.832,0-11.663Z" transform="translate(-73.008)" fill="#80ba01"/>
        <path id="Path_16" data-name="Path 16" d="M683.56,26.13a4.577,4.577,0,0,1,3.676-.432c.01.72,0,1.441,0,2.162a2.4,2.4,0,0,0-1.859-.17,1.474,1.474,0,0,0-.841,1.177,15.9,15.9,0,0,0-.047,1.889c1.23,0,2.46,0,3.69,0,.009-.8-.01-1.6.011-2.4.836-.238,1.664-.5,2.5-.756.007,1.052-.01,2.1.009,3.158.831-.012,1.664,0,2.5-.006V32.8c-.835-.034-1.671-.009-2.506-.012,0,1.178,0,2.355,0,3.533.013.652-.035,1.308.041,1.958a1.269,1.269,0,0,0,.545,1.006,1.88,1.88,0,0,0,1.918-.18v2.069a4.933,4.933,0,0,1-2.306.353,2.8,2.8,0,0,1-1.989-.912,3.766,3.766,0,0,1-.712-2.407c-.006-1.807,0-3.615,0-5.423q-1.846,0-3.692,0,0,4.254,0,8.509h-2.523q0-4.254,0-8.506c-.585-.011-1.17,0-1.755-.009,0-.673,0-1.347,0-2.021.582-.013,1.165-.008,1.748,0a10.757,10.757,0,0,1,.174-2.689,3.438,3.438,0,0,1,1.423-1.941Z" transform="translate(-578.385 -21.685)" fill="#777"/>
        <path id="Path_17" data-name="Path 17" d="M334.53,30.566a1.542,1.542,0,0,1,1.4.494A1.438,1.438,0,0,1,336.1,32.7a1.569,1.569,0,0,1-1.679.7A1.426,1.426,0,0,1,333.251,32a1.46,1.46,0,0,1,1.279-1.431Z" transform="translate(-283.361 -25.975)" fill="#777"/>
        <path id="Path_18" data-name="Path 18" d="M212.665,32.747h3.669q1.713,4.349,3.435,8.7c.292.725.565,1.458.871,2.178,1.469-3.623,2.959-7.237,4.417-10.865,1.176-.019,2.353,0,3.53-.007q0,7.354,0,14.708c-.849,0-1.7.007-2.545,0,.009-3.618,0-7.236,0-10.855,0-.163,0-.325-.015-.488a1.937,1.937,0,0,0-.132.235c-1.458,3.7-2.943,7.4-4.393,11.1-.6.022-1.208,0-1.813.011-1.5-3.7-2.989-7.415-4.485-11.122-.039-.077-.081-.152-.127-.224-.031,1.585,0,3.172-.013,4.757q0,3.293,0,6.586c-.8,0-1.6,0-2.4,0q0-7.355,0-14.71Z" transform="translate(-180.828 -27.843)" fill="#777"/>
        <path id="Path_19" data-name="Path 19" d="M366.564,59.086a6.906,6.906,0,0,1,3.747.011,3.023,3.023,0,0,1,.719.3c-.014.8,0,1.608-.008,2.412a4.007,4.007,0,0,0-2.879-.885,2.962,2.962,0,0,0-2.1,1.163,4.068,4.068,0,0,0-.668,2.92,3.161,3.161,0,0,0,1.019,2.1,3.194,3.194,0,0,0,2.36.7,4.806,4.806,0,0,0,2.263-.929c.007.761,0,1.523.006,2.284a6.136,6.136,0,0,1-3.448.714,5.114,5.114,0,0,1-3.286-1.37,5.255,5.255,0,0,1-1.527-3.529,6.391,6.391,0,0,1,1-3.914,5.076,5.076,0,0,1,2.8-1.977Z" transform="translate(-308.454 -50.025)" fill="#777"/>
        <path id="Path_20" data-name="Path 20" d="M555.341,58.937a6.672,6.672,0,0,1,3.491.364c0,.773,0,1.546,0,2.319a4.443,4.443,0,0,0-2.649-.782,1.356,1.356,0,0,0-1.2.666,1.09,1.09,0,0,0,.366,1.29c.715.478,1.568.682,2.309,1.11a3.322,3.322,0,0,1,1.445,1.374,3.076,3.076,0,0,1-.657,3.549,4.825,4.825,0,0,1-3.51,1.066,7.5,7.5,0,0,1-2.564-.589c0-.813-.005-1.626,0-2.438a5.519,5.519,0,0,0,2.289.988,2.946,2.946,0,0,0,1.741-.16,1.007,1.007,0,0,0,.3-1.433,3.037,3.037,0,0,0-1.1-.721,10.548,10.548,0,0,1-2.177-1.115A2.609,2.609,0,0,1,552.483,63a3.216,3.216,0,0,1,.349-2.516,3.756,3.756,0,0,1,2.51-1.542Z" transform="translate(-469.677 -50.037)" fill="#777"/>
        <path id="Path_21" data-name="Path 21" d="M434.147,59.633a2.845,2.845,0,0,1,2.341-.2c0,.841,0,1.683,0,2.524a2.683,2.683,0,0,0-1.705-.4A2.094,2.094,0,0,0,433.2,62.82a4.66,4.66,0,0,0-.36,2.152q0,2.521,0,5.042h-2.487q0-5.268,0-10.538c.83-.01,1.66-.006,2.49,0,0,.6,0,1.206,0,1.81a3.23,3.23,0,0,1,1.3-1.652Z" transform="translate(-365.93 -50.401)" fill="#777"/>
        <path id="Path_22" data-name="Path 22" d="M334.787,60.584c.836,0,1.674-.012,2.51,0-.01,3.512,0,7.024,0,10.535h-2.5q0-5.27,0-10.54Z" transform="translate(-284.668 -51.51)" fill="#777"/>
        <path id="Path_23" data-name="Path 23" d="M482.568,61.554a4.46,4.46,0,0,0-2.2-2.227,6.694,6.694,0,0,0-3.611-.426,5.034,5.034,0,0,0-3.316,1.772,5.618,5.618,0,0,0-1.164,3.222,6.051,6.051,0,0,0,.924,3.937,4.777,4.777,0,0,0,2.914,1.9,7.245,7.245,0,0,0,2.953,0,4.881,4.881,0,0,0,2.9-1.787,5.59,5.59,0,0,0,1.109-3.07A6.917,6.917,0,0,0,482.568,61.554Zm-2.436,4.839a2.3,2.3,0,0,1-1.239,1.217,3.4,3.4,0,0,1-2.056.09,2.517,2.517,0,0,1-1.581-1.3,4.865,4.865,0,0,1-.383-2.639,3.353,3.353,0,0,1,.974-2.2,2.639,2.639,0,0,1,1.66-.655,2.714,2.714,0,0,1,2.11.716,3.4,3.4,0,0,1,.871,2.2A5.529,5.529,0,0,1,480.132,66.393Z" transform="translate(-401.554 -50.022)" fill="#777"/>
        <path id="Path_24" data-name="Path 24" d="M616.817,61.86a4.5,4.5,0,0,0-2.167-2.452,6.533,6.533,0,0,0-3.744-.509,5.224,5.224,0,0,0-2.787,1.2,5.166,5.166,0,0,0-1.664,3.238,6.981,6.981,0,0,0,.4,3.662,4.675,4.675,0,0,0,2.563,2.486,6.784,6.784,0,0,0,3.553.3,4.927,4.927,0,0,0,3.1-1.813,5.766,5.766,0,0,0,1.141-3.591A6.713,6.713,0,0,0,616.817,61.86Zm-2.275,3.574a3.286,3.286,0,0,1-.652,1.547,2.36,2.36,0,0,1-1.474.793,3.333,3.333,0,0,1-1.8-.2,2.557,2.557,0,0,1-1.33-1.392,5.008,5.008,0,0,1-.3-2.3,3.643,3.643,0,0,1,.764-2.1,2.58,2.58,0,0,1,1.841-.883,2.767,2.767,0,0,1,2.021.6,2.892,2.892,0,0,1,.913,1.678A6.408,6.408,0,0,1,614.542,65.434Z" transform="translate(-515.602 -50.023)" fill="#777"/>
        <path id="Path_25" data-name="Path 25" d="M0,85.859q5.832,0,11.663,0,0,5.832,0,11.662H0V85.859Z" transform="translate(0 -73.006)" fill="#02a4ef"/>
        <path id="Path_26" data-name="Path 26" d="M85.864,85.863q5.831,0,11.662,0V97.525H85.863q0-5.831,0-11.662Z" transform="translate(-73.009 -73.008)" fill="#ffb902"/>
      </g>
    </g>
    <rect id="Rectangle_1" data-name="Rectangle 1" width="3" height="24" transform="translate(127 2)"/>
    <text id="Partner_Resources" data-name="Partner Resources" transform="translate(142 21)" font-size="19" font-family="Helvetica"><tspan x="0" y="0">Partner Resources</tspan></text>
  </g>
</svg>
